# xmcd
#
# Track frame offsets:
#	150
#	10747
#	26534
#	37615
#	49397
#	61590
#	73979
#	86971
#	103355
#	115771
#	126659
#	144724
#	153879
#	169940
#	180230
#	191078
#	201109
#	213535
#	224050
#	235276
#	246089
#	256495
#	267033
#	277527
#
# Disc length: 3847 seconds
# Revision: 0
# Processed by: cddbd v1.5.2PL0 Copyright (c) Steve Scherf et al.
# Submitted via: dBpowerAMP V12.0
#
DISCID=640f0518
DTITLE=George Jackson - Leavin' Your Homework Undone - In The Studio 1968-71
DYEAR=2018
DGENRE=Soul
TTITLE0=I Got a Feeling
TTITLE1=I'm Gonna Hold on (to What I've Got) (Demo)
TTITLE2=What Kind of Woman Are You
TTITLE3=I'm Glad to Have What he Didn't Want
TTITLE4=I Slowly Killed Your Love For me
TTITLE5=A Woman Respects a Man
TTITLE6=A Few Precious Moments
TTITLE7=Don't Tell me Nothing About my Baby
TTITLE8=A Man And a Half
TTITLE9=If This is Love
TTITLE10=I Wish I Was a Child Again
TTITLE11=Leavin' Your Homework Undone
TTITLE12=Quicksand Around my Mind
TTITLE13=Two Way Proposition (Duet With Marjorie Ingram)
TTITLE14=I Got to Stop You Road Runner
TTITLE15=Humpin' to Please
TTITLE16=Your Love is so Good
TTITLE17=Never in Public
TTITLE18=You Caught me Red Handed
TTITLE19=Oh Baby What You're Doing to me
TTITLE20=Keep Your Business to Yourself
TTITLE21=Your Love Made a U-Turn
TTITLE22=Weekend Love
TTITLE23=Wait Till The Time is Right
EXTD=
EXTT0=
EXTT1=
EXTT2=
EXTT3=
EXTT4=
EXTT5=
EXTT6=
EXTT7=
EXTT8=
EXTT9=
EXTT10=
EXTT11=
EXTT12=
EXTT13=
EXTT14=
EXTT15=
EXTT16=
EXTT17=
EXTT18=
EXTT19=
EXTT20=
EXTT21=
EXTT22=
EXTT23=
PLAYORDER=
